<svg width="20" height="36" viewBox="0 0 20 36" fill="none" xmlns="http://www.w3.org/2000/svg">
<path d="M7.08984 11.4336H8.65234V8.77734C8.3138 8.73828 7.95573 8.70898 7.57812 8.68945C7.20052 8.66992 6.8099 8.66016 6.40625 8.66016C6.40625 8.66016 6.40299 8.66016 6.39648 8.66016C6.38997 8.66016 6.38021 8.66016 6.36719 8.66016C5.23438 8.66016 4.31641 8.9987 3.61328 9.67578C2.91016 10.3529 2.55859 11.3229 2.55859 12.5859V14.7734H0V17.7422H2.55859V25.3398H5.625V17.7422H8.18359L8.55469 14.7734H5.625V12.8789C5.625 12.4362 5.71615 12.0846 5.89844 11.8242C6.08073 11.5638 6.47786 11.4336 7.08984 11.4336Z" fill="#4470CF"/>
</svg>
