<svg width="20" height="20" viewBox="0 0 20 20" fill="none" xmlns="http://www.w3.org/2000/svg">
<path d="M12.793 4.55078C12.5195 4.55078 12.2852 4.64844 12.0898 4.84375C11.8945 5.03906 11.7969 5.27344 11.7969 5.54688C11.7969 5.82031 11.8945 6.05469 12.0898 6.25C12.2852 6.44531 12.5195 6.54297 12.793 6.54297C13.0664 6.54297 13.3008 6.44531 13.4961 6.25C13.6914 6.05469 13.7891 5.82031 13.7891 5.54688C13.7891 5.27344 13.6914 5.03906 13.4961 4.84375C13.3008 4.64844 13.0664 4.55078 12.793 4.55078ZM16.6211 6.5625C16.6081 6.19792 16.569 5.8431 16.5039 5.49805C16.4388 5.153 16.3477 4.81771 16.2305 4.49219V4.55078C16.1263 4.2513 15.9928 3.98112 15.8301 3.74023C15.6673 3.49935 15.4818 3.27474 15.2734 3.06641C15.0781 2.85807 14.8568 2.67253 14.6094 2.50977C14.362 2.347 14.1016 2.21354 13.8281 2.10938H13.7891C13.4896 1.99219 13.1706 1.89779 12.832 1.82617C12.4935 1.75456 12.1419 1.71875 11.7773 1.71875C11.3346 1.69271 10.9342 1.67643 10.5762 1.66992C10.2181 1.66341 9.47266 1.66016 8.33984 1.66016C7.20703 1.66016 6.46159 1.66341 6.10352 1.66992C5.74544 1.67643 5.34505 1.69271 4.90234 1.71875C4.53776 1.71875 4.18294 1.75456 3.83789 1.82617C3.49284 1.89779 3.15755 1.9987 2.83203 2.12891L2.89062 2.10938C2.59115 2.21354 2.32096 2.347 2.08008 2.50977C1.83919 2.67253 1.61458 2.85807 1.40625 3.06641C1.19792 3.26172 1.01237 3.48307 0.849609 3.73047C0.686849 3.97786 0.553385 4.23828 0.449219 4.51172V4.55078C0.332031 4.85026 0.23763 5.16927 0.166016 5.50781C0.094401 5.84635 0.0585938 6.19792 0.0585938 6.5625C0.0325521 7.00521 0.016276 7.4056 0.00976562 7.76367C0.00325521 8.12175 0 8.86719 0 10C0 11.1328 0.00325521 11.8783 0.00976562 12.2363C0.016276 12.5944 0.0325521 12.9948 0.0585938 13.4375C0.0585938 13.8021 0.094401 14.1569 0.166016 14.502C0.23763 14.847 0.338542 15.1823 0.46875 15.5078L0.449219 15.4492C0.553385 15.7487 0.686849 16.0221 0.849609 16.2695C1.01237 16.5169 1.19792 16.7383 1.40625 16.9336C1.61458 17.1419 1.83919 17.3275 2.08008 17.4902C2.32096 17.653 2.57812 17.7865 2.85156 17.8906H2.89062C3.1901 18.0078 3.50911 18.1022 3.84766 18.1738C4.1862 18.2454 4.53776 18.2812 4.90234 18.2812C5.34505 18.3073 5.74544 18.3236 6.10352 18.3301C6.46159 18.3366 7.20703 18.3398 8.33984 18.3398C9.47266 18.3398 10.2181 18.3366 10.5762 18.3301C10.9342 18.3236 11.3346 18.3073 11.7773 18.2812C12.1419 18.2812 12.4967 18.2454 12.8418 18.1738C13.1868 18.1022 13.5221 18.0013 13.8477 17.8711L13.7891 17.8906C14.0885 17.7865 14.362 17.653 14.6094 17.4902C14.8568 17.3275 15.0781 17.1419 15.2734 16.9336C15.4818 16.7253 15.6673 16.5007 15.8301 16.2598C15.9928 16.0189 16.1263 15.7617 16.2305 15.4883V15.4492C16.3477 15.1497 16.4388 14.8307 16.5039 14.4922C16.569 14.1536 16.6081 13.8021 16.6211 13.4375C16.6211 12.9948 16.6309 12.5944 16.6504 12.2363C16.6699 11.8783 16.6797 11.1328 16.6797 10C16.6797 8.86719 16.6764 8.12175 16.6699 7.76367C16.6634 7.4056 16.6471 7.00521 16.6211 6.5625ZM15.1172 13.3398C15.1172 13.6133 15.0911 13.8835 15.0391 14.1504C14.987 14.4173 14.9154 14.6745 14.8242 14.9219L14.8438 14.8828C14.7656 15.0651 14.6745 15.2376 14.5703 15.4004C14.4661 15.5632 14.349 15.7096 14.2188 15.8398C14.0885 15.9701 13.9421 16.0872 13.7793 16.1914C13.6165 16.2956 13.4505 16.3867 13.2812 16.4648H13.2617C13.0273 16.556 12.7799 16.6243 12.5195 16.6699C12.2591 16.7155 11.9922 16.7448 11.7188 16.7578H11.6992C11.2826 16.7708 10.8984 16.7806 10.5469 16.7871C10.1953 16.7936 9.47266 16.7969 8.37891 16.7969C7.28516 16.7969 6.55924 16.7969 6.20117 16.7969C5.8431 16.7969 5.45573 16.7839 5.03906 16.7578C5.02604 16.7578 5.01302 16.7578 5 16.7578C4.98698 16.7578 4.96745 16.7578 4.94141 16.7578C4.66797 16.7578 4.40104 16.735 4.14062 16.6895C3.88021 16.6439 3.63281 16.5755 3.39844 16.4844L3.41797 16.5039C3.2487 16.4258 3.08594 16.3346 2.92969 16.2305C2.77344 16.1263 2.63021 16.0091 2.5 15.8789C2.36979 15.7487 2.2526 15.6022 2.14844 15.4395C2.04427 15.2767 1.95964 15.1107 1.89453 14.9414V14.9219C1.79036 14.6875 1.70898 14.4368 1.65039 14.1699C1.5918 13.903 1.5625 13.6263 1.5625 13.3398C1.5625 12.9232 1.55273 12.5358 1.5332 12.1777C1.51367 11.8197 1.50391 11.0938 1.50391 10C1.50391 8.90625 1.50716 8.18034 1.51367 7.82227C1.52018 7.46419 1.53646 7.07682 1.5625 6.66016C1.5625 6.3737 1.58854 6.097 1.64062 5.83008C1.69271 5.56315 1.76432 5.30599 1.85547 5.05859V5.07812C1.93359 4.89583 2.02474 4.72982 2.12891 4.58008C2.23307 4.43034 2.35677 4.29036 2.5 4.16016C2.63021 4.02995 2.77018 3.90625 2.91992 3.78906C3.06966 3.67188 3.22917 3.58073 3.39844 3.51562L3.41797 3.49609C3.65234 3.40495 3.90299 3.33659 4.16992 3.29102C4.43685 3.24544 4.71354 3.22266 5 3.22266C5.41667 3.22266 5.80404 3.21289 6.16211 3.19336C6.52018 3.17383 7.24609 3.16406 8.33984 3.16406C9.43359 3.16406 10.1595 3.16732 10.5176 3.17383C10.8757 3.18034 11.263 3.19661 11.6797 3.22266C11.9531 3.22266 12.2233 3.2487 12.4902 3.30078C12.7572 3.35286 13.0143 3.42448 13.2617 3.51562L13.2227 3.49609C13.418 3.57422 13.597 3.66862 13.7598 3.7793C13.9225 3.88997 14.0755 4.01693 14.2188 4.16016C14.349 4.29036 14.4661 4.43034 14.5703 4.58008C14.6745 4.72982 14.7591 4.88932 14.8242 5.05859L14.8438 5.07812C14.9349 5.3125 15.0033 5.56315 15.0488 5.83008C15.0944 6.097 15.1172 6.3737 15.1172 6.66016C15.1432 7.07682 15.1595 7.46419 15.166 7.82227C15.1725 8.18034 15.1758 8.90625 15.1758 10C15.1758 11.0938 15.1725 11.8197 15.166 12.1777C15.1595 12.5358 15.1432 12.9232 15.1172 13.3398ZM8.33984 5.72266C7.75391 5.72266 7.20052 5.83333 6.67969 6.05469C6.15885 6.28906 5.70638 6.59831 5.32227 6.98242C4.93815 7.36654 4.63542 7.81901 4.41406 8.33984C4.19271 8.86068 4.08203 9.41406 4.08203 10C4.08203 10.5859 4.19271 11.1393 4.41406 11.6602C4.63542 12.181 4.93815 12.6335 5.32227 13.0176C5.70638 13.4017 6.15885 13.7109 6.67969 13.9453C7.20052 14.1667 7.75391 14.2773 8.33984 14.2773C8.9388 14.2773 9.4987 14.1667 10.0195 13.9453C10.5273 13.7109 10.9766 13.4017 11.3672 13.0176C11.7578 12.6335 12.0638 12.181 12.2852 11.6602C12.5065 11.1393 12.6172 10.5859 12.6172 10C12.6172 9.40104 12.5065 8.84766 12.2852 8.33984C12.0638 7.81901 11.7611 7.36328 11.377 6.97266C10.9928 6.58203 10.5404 6.27604 10.0195 6.05469C9.4987 5.83333 8.94531 5.72266 8.35938 5.72266C8.35938 5.72266 8.35612 5.72266 8.34961 5.72266C8.3431 5.72266 8.33984 5.72266 8.33984 5.72266ZM8.33984 12.7734C7.57161 12.7734 6.91732 12.5033 6.37695 11.9629C5.83659 11.4225 5.56641 10.7682 5.56641 10C5.56641 9.23177 5.83659 8.57747 6.37695 8.03711C6.91732 7.49675 7.57161 7.22656 8.33984 7.22656C9.10807 7.22656 9.76237 7.49675 10.3027 8.03711C10.8431 8.57747 11.1133 9.23177 11.1133 10C11.1133 10.7682 10.8431 11.4225 10.3027 11.9629C9.76237 12.5033 9.10807 12.7734 8.33984 12.7734Z" fill="white"/>
</svg>
