<svg width="1920" height="135" viewBox="0 0 1920 135" fill="none" xmlns="http://www.w3.org/2000/svg">
<g clip-path="url(#clip0_2101_1156)">
<g clip-path="url(#clip1_2101_1156)">
<path d="M1687.48 2.22309C1606.65 -4.60721 1526.06 5.55068 1445.22 15.8702C1364.37 26.1898 1283.55 31.3361 1202.72 28.7629C1121.89 26.1898 1041.06 18.4434 960.229 20.1139C879.398 22.3098 798.566 35.216 717.735 41.6691C637.032 48.1201 555.943 48.1201 475.241 41.6691C394.409 35.2295 313.578 22.3233 232.746 15.8837C151.915 9.44409 70.8546 9.43062 30.4389 9.43062H-9.97681V134.72H1929.98V41.6152C1849.24 31.2553 1768.22 8.2855 1687.48 2.22309Z" fill="#FEFEFE"/>
</g>
<rect x="-10" y="129.72" width="1940" height="5" fill="#FEFEFE"/>
</g>
<defs>
<clipPath id="clip0_2101_1156">
<rect width="1920" height="134.72" fill="white"/>
</clipPath>
<clipPath id="clip1_2101_1156">
<rect width="1940" height="134.72" fill="white" transform="translate(-10)"/>
</clipPath>
</defs>
</svg>
