<svg width="20" height="20" viewBox="0 0 20 20" fill="none" xmlns="http://www.w3.org/2000/svg">
<path d="M18.3398 8.08594C18.3398 8.04688 18.3431 8.00781 18.3496 7.96875C18.3561 7.92969 18.3594 7.89062 18.3594 7.85156C18.3594 7.26562 18.291 6.69922 18.1543 6.15234C18.0176 5.60547 17.8255 5.09115 17.5781 4.60938L17.5977 4.64844C17.4154 4.4401 17.2038 4.26432 16.9629 4.12109C16.722 3.97786 16.4583 3.88021 16.1719 3.82812L16.1523 3.80859C15.2669 3.73047 14.3229 3.66862 13.3203 3.62305C12.3177 3.57747 11.2956 3.55469 10.2539 3.55469C10.0586 3.55469 9.86979 3.55469 9.6875 3.55469C9.50521 3.55469 9.31641 3.55469 9.12109 3.55469H9.17969C9.01042 3.55469 8.82812 3.55469 8.63281 3.55469C8.4375 3.55469 8.24219 3.55469 8.04688 3.55469C7.03125 3.55469 6.01562 3.57747 5 3.62305C3.98438 3.66862 2.97526 3.73698 1.97266 3.82812L2.22656 3.80859C1.99219 3.84766 1.77083 3.92253 1.5625 4.0332C1.35417 4.14388 1.17188 4.27734 1.01562 4.43359C0.638021 4.77214 0.400391 5.20833 0.302734 5.74219C0.205078 6.27604 0.136719 6.79688 0.0976562 7.30469C0.0716146 7.70833 0.0488281 8.14128 0.0292969 8.60352C0.00976562 9.06576 0 9.53125 0 10C0 10.4688 0.00976562 10.9408 0.0292969 11.416C0.0488281 11.8913 0.0716146 12.3633 0.0976562 12.832V12.6953C0.110677 12.9948 0.139974 13.2878 0.185547 13.5742C0.23112 13.8607 0.286458 14.1406 0.351562 14.4141V14.375C0.403646 14.5833 0.478516 14.7852 0.576172 14.9805C0.673828 15.1758 0.794271 15.3516 0.9375 15.5078C1.10677 15.6641 1.29557 15.7975 1.50391 15.9082C1.71224 16.0189 1.93359 16.1003 2.16797 16.1523H2.1875C2.8776 16.2435 3.61328 16.3118 4.39453 16.3574C5.17578 16.403 5.97656 16.4258 6.79688 16.4258C6.9401 16.4258 7.08008 16.4258 7.2168 16.4258C7.35352 16.4258 7.49349 16.4258 7.63672 16.4258H7.59766C8.32682 16.4388 9.03646 16.4453 9.72656 16.4453C10.4167 16.4453 11.11 16.4355 11.8066 16.416C12.5033 16.3965 13.2031 16.3672 13.9062 16.3281C14.6094 16.2891 15.3385 16.2435 16.0938 16.1914C16.3411 16.1523 16.5723 16.0742 16.7871 15.957C17.002 15.8398 17.194 15.7031 17.3633 15.5469C17.4805 15.4297 17.5814 15.3027 17.666 15.166C17.7507 15.0293 17.819 14.8828 17.8711 14.7266V14.707C18.0143 14.3034 18.125 13.8704 18.2031 13.4082C18.2812 12.946 18.3203 12.4674 18.3203 11.9727C18.3203 11.9596 18.3203 11.9434 18.3203 11.9238C18.3203 11.9043 18.3203 11.888 18.3203 11.875C18.3333 11.6406 18.3398 11.0124 18.3398 9.99023C18.3398 8.9681 18.3398 8.33333 18.3398 8.08594ZM7.30469 12.3828V7.20703L12.2266 9.80469C11.5365 10.1953 10.7585 10.6055 9.89258 11.0352C9.02669 11.4648 8.16406 11.9141 7.30469 12.3828Z" fill="white"/>
</svg>
